Results
version=1
nRows=26
nColumns=24
inDegrees=yes
endheader
time	pelvis_tilt	pelvis_list	pelvis_rotation	pelvis_tx	pelvis_ty	pelvis_tz	hip_flexion_r	hip_adduction_r	hip_rotation_r	knee_angle_r	ankle_angle_r	subtalar_angle_r	mtp_angle_r	hip_flexion_l	hip_adduction_l	hip_rotation_l	knee_angle_l	ankle_angle_l	subtalar_angle_l	mtp_angle_l	lumbar_extension	lumbar_bending	lumbar_rotation
      0.72483333	     -5.32697711	      0.35605643	      0.17140778	     -0.48154955	      1.00719110	      0.32579145	     15.09829281	      3.17945790	     -0.19632148	    -19.66388087	     10.08177898	     -8.06524831	      3.29773949	     18.79364843	      0.06649969	     -2.71038502	    -65.68712798	    -11.37412349	     -6.12170228	      7.41446873	     -8.02681020	      5.66692071	      2.17560391
      0.72900000	     -5.31376612	      0.49539495	      0.21635654	     -0.47642053	      1.00811183	      0.32608438	     14.57575512	      3.05937895	     -0.13749169	    -19.27772315	     10.10365016	     -8.17385599	      3.26454654	     19.23871676	      0.16180952	     -2.76151099	    -65.47455030	    -10.75424686	     -6.46771472	      7.36683288	     -8.05335966	      5.40111474	      2.51686650
      0.73316667	     -5.33611590	      0.63622848	      0.26767021	     -0.47130371	      1.00894633	      0.32633250	     14.10939878	      2.92843825	     -0.12422117	    -18.93074571	     10.14857101	     -8.19832288	      3.25371311	     19.71438884	      0.27017044	     -2.80196753	    -65.20908605	    -10.10339216	     -6.81829522	      7.35869059	     -8.02828018	      5.19062781	      2.59931695
      0.73733333	     -5.29074356	      0.79960253	      0.29448068	     -0.46620859	      1.00986483	      0.32663283	     13.56163800	      2.78676160	     -0.04664110	    -18.55789812	     10.14873618	     -8.32726879	      3.21134816	     20.09869809	      0.39269672	     -2.87505333	    -64.86894343	     -9.48826006	     -7.14412150	      7.29398724	     -8.12902392	      4.86369930	      2.98578240
      0.74150000	     -5.27457347	      0.95095485	      0.32213435	     -0.46110333	      1.01073262	      0.32689918	     13.04803102	      2.65204080	      0.00344374	    -18.18994578	     10.14748838	     -8.40507007	      3.16976537	     20.50183877	      0.50956284	     -2.93921885	    -64.47283288	     -8.85172881	     -7.45759957	      7.22925542	     -8.18214135	      4.59093893	      3.22003353
      0.74566667	     -5.25074152	      1.11840707	      0.33950616	     -0.45597337	      1.01159252	      0.32714780	     12.52697596	      2.49766746	      0.05005432	    -17.82552738	     10.16490249	     -8.47144427	      3.12337381	     20.87335876	      0.64508495	     -3.01660744	    -64.00001452	     -8.23389512	     -7.75227506	      7.15159274	     -8.22293291	      4.32192882	      3.45874242
      0.74983333	     -5.22912038	      1.28823524	      0.35153207	     -0.45084555	      1.01243455	      0.32739461	     12.00757113	      2.34061302	      0.10000195	    -17.45705739	     10.17310841	     -8.52994293	      3.07151357	     21.23169455	      0.78480000	     -3.09754471	    -63.46597105	     -7.62142150	     -8.02746381	      7.06041876	     -8.26898134	      4.04093025	      3.69556958
      0.75400000	     -5.21905765	      1.46969782	      0.36133594	     -0.44573595	      1.01323154	      0.32761058	     11.50946064	      2.16755300	      0.14564443	    -17.10431218	     10.18863824	     -8.57117013	      3.02100524	     21.58820913	      0.94571005	     -3.17220905	    -62.87110032	     -7.01859840	     -8.28165261	      6.96730135	     -8.30801714	      3.75119083	      3.90805779
      0.75816667	     -5.17147584	      1.64216481	      0.36712017	     -0.44060634	      1.01406519	      0.32781729	     10.96567974	      2.00213953	      0.17444966	    -16.73980362	     10.18430284	     -8.60690885	      2.97007773	     21.88412700	      1.09627743	     -3.25153498	    -62.21196347	     -6.41013279	     -8.50823987	      6.87093226	     -8.39038042	      3.47591339	      4.11831514
      0.76233333	     -5.19203127	      1.80846911	      0.37312075	     -0.43551699	      1.01474481	      0.32799184	     10.51440280	      1.83803210	      0.18619228	    -16.40993853	     10.16973186	     -8.61751093	      2.94424093	     22.24788080	      1.24948447	     -3.31818924	    -61.51457657	     -5.78805152	     -8.73571985	      6.82711406	     -8.38860791	      3.23175726	      4.22811691
      0.76650000	     -5.13703196	      2.00294320	      0.36226002	     -0.43038419	      1.01553703	      0.32817491	      9.96826495	      1.64624792	      0.22335220	    -16.05423812	     10.18751586	     -8.65309504	      2.89278348	     22.49310668	      1.43303055	     -3.39491841	    -60.71874384	     -5.22702318	     -8.88679885	      6.71777020	     -8.46959963	      2.93674096	      4.51648110
      0.77066667	     -5.10041014	      2.13534484	      0.35216609	     -0.42526638	      1.01623937	      0.32835088	      9.43859171	      1.52029602	      0.24875926	    -15.68578613	     10.16459155	     -8.67237562	      2.78387770	     22.75868901	      1.54701574	     -3.46516472	    -59.90903116	     -4.62176713	     -9.05501495	      6.46234283	     -8.53667559	      2.70524406	      4.81034933
      0.77483333	     -5.08471316	      2.31742505	      0.34979327	     -0.42017300	      1.01690224	      0.32847717	      8.94523020	      1.33492948	      0.27019615	    -15.34728791	     10.17048402	     -8.67559860	      2.71880650	     23.02207769	      1.73595932	     -3.50672673	    -59.01507572	     -4.07063627	     -9.16261626	      6.30871607	     -8.58821181	      2.44136669	      4.95764948
      0.77900000	     -5.05545872	      2.47625452	      0.33607330	     -0.41507279	      1.01752904	      0.32858773	      8.44380737	      1.17069480	      0.26660859	    -15.01890917	     10.15233186	     -8.64915497	      2.62456464	     23.25604103	      1.89800649	     -3.55570960	    -58.07890044	     -3.49601559	     -9.28820825	      6.06953791	     -8.64883215	      2.20923089	      5.17687824
      0.78316667	     -5.03547726	      2.63110964	      0.33542706	     -0.40996424	      1.01812800	      0.32868081	      7.94466100	      1.01012021	      0.26369517	    -14.67657327	     10.14279408	     -8.65851072	      2.56692382	     23.48101351	      2.06630986	     -3.57756512	    -57.08055579	     -2.98210752	     -9.34003898	      5.92289704	     -8.68536661	      1.97390704	      5.30693922
      0.78733333	     -5.02915137	      2.77473088	      0.32519283	     -0.40486913	      1.01865198	      0.32876193	      7.47201367	      0.85924840	      0.25563828	    -14.35520387	     10.11434862	     -8.64980695	      2.51594072	     23.70561976	      2.22454535	     -3.59685492	    -56.03818656	     -2.46317434	     -9.38448761	      5.78893679	     -8.70969980	      1.76486616	      5.46797135
      0.79150000	     -5.01795399	      2.91350683	      0.31239652	     -0.39978131	      1.01914345	      0.32881986	      6.99822100	      0.71118066	      0.24897484	    -14.04094038	     10.09390373	     -8.62065323	      2.46159565	     23.90728144	      2.38681138	     -3.59709452	    -54.94317313	     -1.97155369	     -9.42776452	      5.63323342	     -8.74741339	      1.56468148	      5.64061722
      0.79566667	     -4.99404846	      3.04824960	      0.29962392	     -0.39468401	      1.01961957	      0.32884919	      6.51199291	      0.56362090	      0.22974340	    -13.72971803	     10.06706161	     -8.58830106	      2.41326214	     24.07465020	      2.55106357	     -3.58629117	    -53.79270220	     -1.51124705	     -9.44614780	      5.48838720	     -8.79608059	      1.37511728	      5.78876364
      0.79983333	     -5.00987893	      3.17108434	      0.28451223	     -0.38961493	      1.01999929	      0.32885915	      6.08666403	      0.42708766	      0.20846908	    -13.45186546	      9.99795686	     -8.55585271	      2.38285726	     24.26962774	      2.71369844	     -3.54698775	    -52.59573123	     -1.06587473	     -9.45328189	      5.39994128	     -8.79829398	      1.21385396	      5.89474634
      0.80400000	     -4.95811051	      3.26856348	      0.26953849	     -0.38450674	      1.02043718	      0.32887927	      5.55824881	      0.32044122	      0.20863618	    -13.11389500	      9.99280078	     -8.52401414	      2.33378851	     24.37271450	      2.84498044	     -3.50834268	    -51.35310377	     -0.67619253	     -9.44329672	      5.23378234	     -8.88740981	      1.06202450	      6.09188313
      0.80816667	     -4.98424790	      3.37409381	      0.25239008	     -0.37942837	      1.02072091	      0.32886218	      5.15103279	      0.19930166	      0.18813883	    -12.85155713	      9.92238053	     -8.48743983	      2.30443805	     24.54154865	      2.99919667	     -3.43711669	    -50.05982722	     -0.29894773	     -9.41892253	      5.13733599	     -8.87024053	      0.92032719	      6.19026252
      0.81233333	     -4.91480976	      3.46358538	      0.23247989	     -0.37430908	      1.02110822	      0.32885524	      4.61055361	      0.09712512	      0.18288322	    -12.52759027	      9.91846134	     -8.43810851	      2.25963005	     24.58411522	      3.13343682	     -3.36657200	    -48.71376448	      0.01321186	     -9.40911258	      4.96624657	     -8.98244493	      0.79035638	      6.36701888
      0.81650000	     -4.94469552	      3.54512634	      0.21097391	     -0.36921326	      1.02132327	      0.32882082	      4.20876658	     -0.00025052	      0.17187984	    -12.26739729	      9.84170369	     -8.39882133	      2.23026655	     24.71617862	      3.26971400	     -3.26396877	    -47.32150410	      0.31379164	     -9.36844916	      4.85863473	     -8.95966089	      0.67369630	      6.46647304
      0.82066667	     -4.90221252	      3.60985146	      0.18994349	     -0.36410300	      1.02157523	      0.32878230	      3.70784077	     -0.07835541	      0.17674951	    -11.96499779	      9.83356665	     -8.35566956	      2.18694893	     24.75505853	      3.38767593	     -3.15959802	    -45.89310613	      0.55546992	     -9.35383317	      4.67845273	     -9.04626299	      0.58528606	      6.63055809
      0.82483333	     -4.90548740	      3.66976572	      0.16813807	     -0.35898996	      1.02174306	      0.32872883	      3.27223115	     -0.15386563	      0.17692067	    -11.69498446	      9.79035945	     -8.31639658	      2.14530086	     24.82009982	      3.50678619	     -3.02961338	    -44.41004790	      0.76191406	     -9.32717957	      4.50247894	     -9.06041806	      0.50256179	      6.75762726
      0.82900000	     -4.90023719	      3.72598457	      0.14589780	     -0.35386154	      1.02188747	      0.32865797	      2.82653488	     -0.22787620	      0.17586603	    -11.42442656	      9.74136973	     -8.26824682	      2.10815880	     24.85470021	      3.62575319	     -2.88566878	    -42.88176078	      0.93903208	     -9.29758017	      4.34035855	     -9.09815524	      0.43124319	      6.86912516
